# xmcd
#
# Track frame offsets: 
#        150
#        1951
#        7836
#        34648
#        47499
#        68512
#        85647
#        107700
#        122931
#        131778
#        150135
#        171603
#        213357
#        243134
#        250392
#        263836
#        273936
#        284977
#        297384
#        304520
#
# Disc length: 4185 seconds
#
# Revision: 0
# Processed by: cddbd v1.4PL0 Copyright (c) Steve Scherf et al.
# Submitted via: ExactAudioCopy v0.90b4
#
DISCID=11105714
DTITLE=Slim Harpo and His King Bees - Sting It Then (live)
DYEAR=1961
DGENRE=Blues
TTITLE0=Star-Time Announcement
TTITLE1=I'm A King Bee
TTITLE2=Buzzin'
TTITLE3=I Got Love If You Want It
TTITLE4=You Know I Love You
TTITLE5=Lottie Mo
TTITLE6=Everbody Needs Somebody
TTITLE7=Big Boss Man
TTITLE8=Hold Me Tenderly
TTITLE9=I'll Take Care Of You
TTITLE10=Boogie Chillun
TTITLE11=Moody Blues
TTITLE12=Sugar Coated Love
TTITLE13=Star-Time Theme
TTITLE14=I'm A King Bee (2)
TTITLE15=I Don't Play
TTITLE16=I Got Love If You Want It (2)
TTITLE17=Little Liza Jane
TTITLE18=When The Saints Go Marchin' In
TTITLE19=Rainin' In My Heart
EXTD=
EXTT0=
EXTT1=
EXTT2=
EXTT3=
EXTT4=
EXTT5=
EXTT6=
EXTT7=
EXTT8=
EXTT9=
EXTT10=
EXTT11=
EXTT12=
EXTT13=
EXTT14=
EXTT15=
EXTT16=
EXTT17=
EXTT18=
EXTT19=
PLAYORDER=
